<?xml version="1.0" encoding="UTF-8" standalone="no"?>
<!-- Created with Inkscape (http://www.inkscape.org/) -->

<svg
   width="117.35921mm"
   height="80.869583mm"
   viewBox="0 0 117.35921 80.869583"
   version="1.1"
   id="svg1"
   xml:space="preserve"
   inkscape:version="1.3.2 (091e20e, 2023-11-25, custom)"
   sodipodi:docname="logoInventory.svg"
   xmlns:inkscape="http://www.inkscape.org/namespaces/inkscape"
   xmlns:sodipodi="http://sodipodi.sourceforge.net/DTD/sodipodi-0.dtd"
   xmlns="http://www.w3.org/2000/svg"
   xmlns:svg="http://www.w3.org/2000/svg"><sodipodi:namedview
     id="namedview1"
     pagecolor="#ffffff"
     bordercolor="#000000"
     borderopacity="0.25"
     inkscape:showpageshadow="2"
     inkscape:pageopacity="0.0"
     inkscape:pagecheckerboard="0"
     inkscape:deskcolor="#d1d1d1"
     inkscape:document-units="mm"
     inkscape:zoom="1.3843855"
     inkscape:cx="251.0139"
     inkscape:cy="154.94239"
     inkscape:window-width="1920"
     inkscape:window-height="991"
     inkscape:window-x="-9"
     inkscape:window-y="-9"
     inkscape:window-maximized="1"
     inkscape:current-layer="g10" /><defs
     id="defs1"><inkscape:perspective
       sodipodi:type="inkscape:persp3d"
       inkscape:vp_x="28.650112 : -97.361675 : 1"
       inkscape:vp_y="0 : 1000 : 0"
       inkscape:vp_z="238.65013 : -97.361675 : 1"
       inkscape:persp3d-origin="133.65012 : -146.86167 : 1"
       id="perspective1" /></defs><g
     inkscape:label="Capa 1"
     inkscape:groupmode="layer"
     id="layer1"
     transform="translate(-34.298481,-103.2641)"><g
       id="g10"><g
         style="fill:#9b2db9;fill-opacity:1"
         id="g8"
         transform="matrix(1.681937,0.5595288,-0.5595288,1.681937,90.976201,101.1172)"><path
           fill-rule="evenodd"
           clip-rule="evenodd"
           d="m 10.9579,8.51864 c 0.0079,0.15935 0.0218,0.31987 0.042,0.48136 1.7876,0.22345 3.4572,-0.32108 4.7224,-1.34722 0.2348,-0.01859 0.4673,-0.02201 0.6951,-0.00963 1.2567,0.06828 2.2937,0.60259 2.8795,1.64164 0.4448,0.78891 0.703,1.65551 0.703,2.71521 0,2.0817 -0.9535,4.2523 -2.3496,6.3122 -1.0539,1.5549 -3.1464,2.1042 -5.0881,1.424 L 12.3305,19.655 c -0.214,-0.075 -0.4472,-0.075 -0.6612,0 l -0.2317,0.0812 C 9.49579,20.4164 7.40333,19.8671 6.34947,18.3122 4.95334,16.2523 3.99988,14.0817 3.99988,12 c 0,-1.0288 0.24334,-1.8756 0.66071,-2.6456 C 5.2333,8.29785 6.27177,7.74749 7.54043,7.66705 8.66006,7.59607 9.8982,7.90358 10.9579,8.51864 Z m 2.042,-4.93267 V 3 c 0,-0.55228 -0.4477,-1 -1,-1 -0.5523,0 -1,0.44772 -1,1 V 6.30987 C 9.85507,5.8274 8.60755,5.59538 7.41388,5.67106 5.62129,5.78471 3.87417,6.60835 2.90229,8.40131 2.33287,9.45181 1.99988,10.6248 1.99988,12 c 0,2.6621 1.20214,5.2331 2.69402,7.4343 1.63921,2.4186 4.70344,3.0916 7.306,2.2232 2.6025,0.8684 5.6668,0.1953 7.306,-2.2232 1.4918,-2.2012 2.694,-4.7723 2.694,-7.4343 0,-1.4187 -0.3544,-2.6221 -0.9608,-3.69751 C 20.1929,6.80168 18.8033,5.99975 17.3096,5.73573 17.8976,4.64129 18.1692,3.35452 17.9999,2 c -1.9216,-0.2402 -3.7068,0.40702 -5,1.58597 z"
           fill="#000000"
           id="path1-4"
           style="fill:#9b2db9;fill-opacity:1" /></g><g
         style="fill:#9b2db9;fill-opacity:1"
         id="g7"
         transform="matrix(-1.7997961,0.69024727,-0.69024727,-1.7997961,171.52495,160.95622)"><path
           d="m 30.133,1.552 c -1.09,-1.044 -2.291,-1.573 -3.574,-1.573 -2.006,0 -3.47,1.296 -3.87,1.693 C 22.125,2.23 2.903,21.46 2.903,21.46 2.777,21.586 2.686,21.744 2.639,21.916 2.206,23.518 0.034,30.626 0.012,30.698 -0.1,31.062 0,31.459 0.268,31.727 c 0.193,0.192 0.45,0.295 0.713,0.295 0.104,0 0.208,-0.016 0.31,-0.049 0.073,-0.024 7.41,-2.395 8.618,-2.756 0.159,-0.048 0.305,-0.134 0.423,-0.251 C 11.095,28.212 29.023,10.483 30.213,9.254 31.444,7.986 32.056,6.664 32.032,5.329 32.007,4.01 31.368,2.74 30.131,1.553 Z M 22.37,4.87 c 0.509,0.123 1.711,0.527 2.938,1.765 1.24,1.251 1.575,2.681 1.638,3.007 C 23.014,13.554 13.963,22.509 10.395,26.038 10.066,25.271 9.533,24.346 8.676,23.483 7.63,22.429 6.565,21.834 5.744,21.499 9.275,17.967 18.497,8.742 22.369,4.871 Z M 4.387,23.186 c 0.55,0.146 1.691,0.57 2.854,1.742 0.896,0.904 1.319,1.9 1.509,2.508 -1.39,0.447 -4.434,1.497 -6.367,2.121 0.573,-1.886 1.541,-4.822 2.004,-6.371 z M 28.763,7.824 c -0.041,0.042 -0.109,0.11 -0.19,0.192 -0.316,-0.814 -0.87,-1.86 -1.831,-2.828 -0.981,-0.989 -1.976,-1.572 -2.773,-1.917 0.068,-0.067 0.12,-0.12 0.141,-0.14 0.114,-0.113 1.153,-1.106 2.447,-1.106 0.745,0 1.477,0.34 2.175,1.01 0.828,0.795 1.256,1.579 1.27,2.331 0.014,0.768 -0.404,1.595 -1.24,2.458 z"
           id="path1-0"
           style="fill:#9b2db9;fill-opacity:1" /></g><g
         style="fill:none;stroke:#9b2db9"
         id="g6"
         transform="matrix(-2.1243049,-3.1462314,-3.1462314,2.1243049,137.91834,146.75257)"><path
           style="color:#000000;fill:#9b2db9;stroke:none;stroke-linejoin:round;-inkscape-stroke:none"
           d="M 8.0566406,6.7773437 6.9433594,7.2226562 7.84375,9.4726563 6.7519531,11.654297 C 6.3514121,11.522947 5.9433435,11.400391 5.5,11.400391 c -2.2572606,0 -4.0996094,1.842348 -4.0996094,4.099609 0,2.257261 1.8423488,4.099609 4.0996094,4.099609 2.2510123,0 4.0855406,-1.833318 4.0957031,-4.082031 l 0.328125,1.146484 a 0.60006002,0.60006002 0 0 0 1.0488279,0.207032 l 4.8125,-6.123047 0.646485,1.941406 1.136718,-0.378906 -1,-3.0000001 L 16,9.5 16.537109,9.2324219 16.400391,8.9589844 l 1.5,-0.25 V 9.5 h 1.199218 V 8 A 0.60006002,0.60006002 0 0 0 18.400391,7.4082031 l -3,0.5 a 0.60006002,0.60006002 0 0 0 -0.4375,0.859375 l 0.06641,0.1328125 H 8.90625 Z m 1.2382813,3.3222653 h 5.4707031 l -4.011719,5.105469 z m -0.9472656,1.046875 0.6855468,2.396485 C 8.7321144,13.004234 8.3180506,12.565911 7.8164062,12.210938 Z M 5.5,12.599609 c 1.6087356,0 2.9003906,1.291655 2.9003906,2.900391 0,1.608736 -1.291655,2.900391 -2.9003906,2.900391 -1.6087356,0 -2.9003906,-1.291655 -2.9003906,-2.900391 0,-1.608736 1.291655,-2.900391 2.9003906,-2.900391 z"
           id="path1" /><path
           style="color:#000000;fill:#9b2db9;stroke:none;-inkscape-stroke:none"
           d="m 18.5,11.400391 c -2.257258,0 -4.099609,1.842351 -4.099609,4.099609 0,2.257258 1.842351,4.099609 4.099609,4.099609 2.257258,0 4.099609,-1.842351 4.099609,-4.099609 0,-2.257258 -1.842351,-4.099609 -4.099609,-4.099609 z m 0,1.199218 c 1.608731,0 2.900391,1.29166 2.900391,2.900391 0,1.608731 -1.29166,2.900391 -2.900391,2.900391 -1.608731,0 -2.900391,-1.29166 -2.900391,-2.900391 0,-1.608731 1.29166,-2.900391 2.900391,-2.900391 z"
           id="circle1" /><path
           style="color:#000000;fill:#9b2db9;stroke:none;stroke-linecap:round;-inkscape-stroke:none"
           d="M 7,6.5 A 0.5,0.5 0 0 0 6.5,7 0.5,0.5 0 0 0 7,7.5 H 9.5 A 0.5,0.5 0 0 0 10,7 0.5,0.5 0 0 0 9.5,6.5 Z"
           id="path2" /></g><g
         id="rect1"><path
           style="color:#000000;fill:#660080;stroke-linecap:round;stroke-linejoin:round;-inkscape-stroke:none"
           d="m 56.759651,137.80397 h 92.166859 l -11.90625,44.09721 H 68.665901 Z"
           id="path5" /><path
           style="color:#000000;fill:#660080;stroke-linecap:round;stroke-linejoin:round;-inkscape-stroke:none"
           d="m 56.759766,135.57227 a 2.2327233,2.2327233 0 0 0 -2.15625,2.81445 l 11.90625,44.0957 a 2.2327233,2.2327233 0 0 0 2.15625,1.65039 h 68.353514 a 2.2327233,2.2327233 0 0 0 2.15625,-1.65039 l 11.90625,-44.0957 a 2.2327233,2.2327233 0 0 0 -2.15625,-2.81445 z m 2.914062,4.46484 h 86.337892 l -10.70117,39.63086 H 70.375 Z"
           id="path6" /></g><g
         id="rect8"><path
           style="color:#000000;fill:#9b2db9;stroke-linecap:round;stroke-linejoin:round;-inkscape-stroke:none"
           d="m 95.962773,142.38417 h 13.760607 c 0.31765,0 0.57337,0.25572 0.57337,0.57336 0,0.31764 -0.25572,0.57336 -0.57337,0.57336 H 95.962773 c -0.317642,0 -0.573361,-0.25572 -0.573361,-0.57336 0,-0.31764 0.255719,-0.57336 0.573361,-0.57336 z"
           id="path3" /><path
           style="color:#000000;fill:#9b2db9;stroke-linecap:round;stroke-linejoin:round;-inkscape-stroke:none"
           d="m 95.962891,140.15234 c -1.51583,0 -2.806641,1.28886 -2.806641,2.80469 0,1.51583 1.290811,2.80664 2.806641,2.80664 h 13.759769 c 1.51583,0 2.80664,-1.29081 2.80664,-2.80664 0,-1.51583 -1.29081,-2.80469 -2.80664,-2.80469 z"
           id="path4" /></g></g></g></svg>
